# xmcd
#
# Track frame offsets: 
#        150
#        16133
#        31091
#        45866
#        59458
#        76524
#        89483
#        104279
#        120537
#
# Disc length: 1797 seconds
#
# Revision: 0
# Processed by: cddbd v1.5.1PL0 Copyright (c) Steve Scherf et al.
# Submitted via: ExactAudioCopy v0.95a5
#
DISCID=59070309
DTITLE=Pete Schlegel - Strong Stuff
DYEAR=2005
DGENRE=Country
TTITLE0=Leavin' Ain't As Easy As It Sounds
TTITLE1=A Girl Like You
TTITLE2=Short For Gone
TTITLE3=Something Strong
TTITLE4=That's The Way I Love You
TTITLE5=Gotta Get To Her Before My Reputation
TTITLE6=Swinging Doors
TTITLE7=Lonesome Orn'ry And Mean
TTITLE8=Liquor To Like Her
EXTD=
EXTT0=
EXTT1=
EXTT2=
EXTT3=
EXTT4=
EXTT5=
EXTT6=
EXTT7=
EXTT8=
PLAYORDER=
